<?xml version="1.0" encoding="UTF-8" standalone="no"?>
<!DOCTYPE svg PUBLIC "-//W3C//DTD SVG 1.1//EN"
 "http://www.w3.org/Graphics/SVG/1.1/DTD/svg11.dtd">
<!-- Generated by graphviz version 2.40.1 (20161225.0304)
 -->
<!-- Title: %3 Pages: 1 -->
<svg width="6830pt" height="628pt"
 viewBox="0.00 0.00 6830.24 628.00" xmlns="http://www.w3.org/2000/svg" xmlns:xlink="http://www.w3.org/1999/xlink">
<g id="graph0" class="graph" transform="scale(1 1) rotate(0) translate(4 624)">
<title>%3</title>
<polygon fill="#ffffff" stroke="transparent" points="-4,4 -4,-624 6826.237,-624 6826.237,4 -4,4"/>
<!-- x34 -->
<g id="node1" class="node">
<title>x34</title>
<ellipse fill="#87ceeb" stroke="#000000" cx="172.2416" cy="-602" rx="94.4839" ry="18"/>
<text text-anchor="middle" x="172.2416" y="-598.3" font-family="Times,serif" font-size="14.00" fill="#000000">(affection husband son)</text>
</g>
<!-- t5 -->
<g id="node54" class="node">
<title>t5</title>
<polygon fill="#00ff00" stroke="#000000" points="394.2416,-548 310.2416,-548 310.2416,-510 394.2416,-510 394.2416,-548"/>
<text text-anchor="middle" x="352.2416" y="-532.8" font-family="Times,serif" font-size="14.00" fill="#000000">spend_time</text>
<text text-anchor="middle" x="352.2416" y="-517.8" font-family="Times,serif" font-size="14.00" fill="#000000">husband son</text>
</g>
<!-- x34&#45;&gt;t5 -->
<g id="edge24" class="edge">
<title>x34&#45;&gt;t5</title>
<path fill="none" stroke="#000000" d="M212.6372,-585.6174C238.5988,-575.0885 272.569,-561.3117 300.4992,-549.9844"/>
<polygon fill="#000000" stroke="#000000" points="302.1521,-553.0911 310.1036,-546.0893 299.5212,-546.6042 302.1521,-553.0911"/>
</g>
<!-- x33 -->
<g id="node2" class="node">
<title>x33</title>
<ellipse fill="#87ceeb" stroke="#000000" cx="630.2416" cy="-602" rx="95.5831" ry="18"/>
<text text-anchor="middle" x="630.2416" y="-598.3" font-family="Times,serif" font-size="14.00" fill="#000000">(affection son daughter)</text>
</g>
<!-- x32 -->
<g id="node3" class="node">
<title>x32</title>
<ellipse fill="#87ceeb" stroke="#000000" cx="378.2416" cy="-602" rx="94.4839" ry="18"/>
<text text-anchor="middle" x="378.2416" y="-598.3" font-family="Times,serif" font-size="14.00" fill="#000000">(affection son husband)</text>
</g>
<!-- x32&#45;&gt;t5 -->
<g id="edge25" class="edge">
<title>x32&#45;&gt;t5</title>
<path fill="none" stroke="#000000" d="M371.8147,-583.9551C368.9958,-576.0405 365.6174,-566.5549 362.467,-557.7096"/>
<polygon fill="#000000" stroke="#000000" points="365.7013,-556.3588 359.0489,-548.1128 359.1071,-558.7075 365.7013,-556.3588"/>
</g>
<!-- x31 -->
<g id="node4" class="node">
<title>x31</title>
<ellipse fill="#87ceeb" stroke="#000000" cx="890.2416" cy="-602" rx="124.2781" ry="18"/>
<text text-anchor="middle" x="890.2416" y="-598.3" font-family="Times,serif" font-size="14.00" fill="#000000">(affection son daughter_in_law)</text>
</g>
<!-- x30 -->
<g id="node5" class="node">
<title>x30</title>
<ellipse fill="#87ceeb" stroke="#000000" cx="1127.2416" cy="-602" rx="83.6854" ry="18"/>
<text text-anchor="middle" x="1127.2416" y="-598.3" font-family="Times,serif" font-size="14.00" fill="#000000">(anger son daughter)</text>
</g>
<!-- x29 -->
<g id="node6" class="node">
<title>x29</title>
<ellipse fill="#87ceeb" stroke="#000000" cx="1336.2416" cy="-602" rx="100.9827" ry="18"/>
<text text-anchor="middle" x="1336.2416" y="-598.3" font-family="Times,serif" font-size="14.00" fill="#000000">(anger old_lady husband)</text>
</g>
<!-- x28 -->
<g id="node7" class="node">
<title>x28</title>
<ellipse fill="#87ceeb" stroke="#000000" cx="1739.2416" cy="-310" rx="84.485" ry="18"/>
<text text-anchor="middle" x="1739.2416" y="-306.3" font-family="Times,serif" font-size="14.00" fill="#000000">(wants maid money)</text>
</g>
<!-- t4 -->
<g id="node48" class="node">
<title>t4</title>
<polygon fill="#00ff00" stroke="#000000" points="1917.7416,-256 1778.7416,-256 1778.7416,-218 1917.7416,-218 1917.7416,-256"/>
<text text-anchor="middle" x="1848.2416" y="-240.8" font-family="Times,serif" font-size="14.00" fill="#000000">steal_caught</text>
<text text-anchor="middle" x="1848.2416" y="-225.8" font-family="Times,serif" font-size="14.00" fill="#000000">maid daughter_in_law</text>
</g>
<!-- x28&#45;&gt;t4 -->
<g id="edge17" class="edge">
<title>x28&#45;&gt;t4</title>
<path fill="none" stroke="#000000" d="M1765.0731,-292.7C1778.7559,-283.5363 1795.809,-272.1154 1810.9053,-262.0051"/>
<polygon fill="#000000" stroke="#000000" points="1813.1663,-264.7033 1819.5275,-256.2306 1809.2711,-258.8872 1813.1663,-264.7033"/>
</g>
<!-- x27 -->
<g id="node8" class="node">
<title>x27</title>
<ellipse fill="#87ceeb" stroke="#000000" cx="1583.2416" cy="-602" rx="125.3778" ry="18"/>
<text text-anchor="middle" x="1583.2416" y="-598.3" font-family="Times,serif" font-size="14.00" fill="#000000">(wants daughter_in_law money)</text>
</g>
<!-- t0 -->
<g id="node36" class="node">
<title>t0</title>
<polygon fill="#00ff00" stroke="#000000" points="1687.2416,-548 1531.2416,-548 1531.2416,-510 1687.2416,-510 1687.2416,-548"/>
<text text-anchor="middle" x="1609.2416" y="-532.8" font-family="Times,serif" font-size="14.00" fill="#000000">steal_caught</text>
<text text-anchor="middle" x="1609.2416" y="-517.8" font-family="Times,serif" font-size="14.00" fill="#000000">daughter_in_law husband</text>
</g>
<!-- x27&#45;&gt;t0 -->
<g id="edge1" class="edge">
<title>x27&#45;&gt;t0</title>
<path fill="none" stroke="#000000" d="M1589.6686,-583.9551C1592.4875,-576.0405 1595.8659,-566.5549 1599.0163,-557.7096"/>
<polygon fill="#000000" stroke="#000000" points="1602.3762,-558.7075 1602.4343,-548.1128 1595.782,-556.3588 1602.3762,-558.7075"/>
</g>
<!-- x26 -->
<g id="node9" class="node">
<title>x26</title>
<ellipse fill="#87ceeb" stroke="#000000" cx="1814.2416" cy="-602" rx="87.1846" ry="18"/>
<text text-anchor="middle" x="1814.2416" y="-598.3" font-family="Times,serif" font-size="14.00" fill="#000000">(has husband money)</text>
</g>
<!-- x26&#45;&gt;t0 -->
<g id="edge2" class="edge">
<title>x26&#45;&gt;t0</title>
<path fill="none" stroke="#000000" d="M1770.5154,-586.4292C1741.9557,-576.2591 1704.2012,-562.8149 1672.4019,-551.4912"/>
<polygon fill="#000000" stroke="#000000" points="1673.3358,-548.1086 1662.7412,-548.051 1670.9876,-554.7029 1673.3358,-548.1086"/>
</g>
<!-- x25 -->
<g id="node10" class="node">
<title>x25</title>
<ellipse fill="#87ceeb" stroke="#000000" cx="2010.2416" cy="-602" rx="90.9839" ry="18"/>
<text text-anchor="middle" x="2010.2416" y="-598.3" font-family="Times,serif" font-size="14.00" fill="#000000">(not_related son maid)</text>
</g>
<!-- x24 -->
<g id="node11" class="node">
<title>x24</title>
<ellipse fill="#87ceeb" stroke="#000000" cx="2210.2416" cy="-602" rx="90.9839" ry="18"/>
<text text-anchor="middle" x="2210.2416" y="-598.3" font-family="Times,serif" font-size="14.00" fill="#000000">(not_related maid son)</text>
</g>
<!-- x23 -->
<g id="node12" class="node">
<title>x23</title>
<ellipse fill="#87ceeb" stroke="#000000" cx="2451.2416" cy="-602" rx="131.8766" ry="18"/>
<text text-anchor="middle" x="2451.2416" y="-598.3" font-family="Times,serif" font-size="14.00" fill="#000000">(not_related daughter_in_law son)</text>
</g>
<!-- x22 -->
<g id="node13" class="node">
<title>x22</title>
<ellipse fill="#87ceeb" stroke="#000000" cx="2733.2416" cy="-602" rx="131.8766" ry="18"/>
<text text-anchor="middle" x="2733.2416" y="-598.3" font-family="Times,serif" font-size="14.00" fill="#000000">(not_related son daughter_in_law)</text>
</g>
<!-- x21 -->
<g id="node14" class="node">
<title>x21</title>
<ellipse fill="#87ceeb" stroke="#000000" cx="2971.2416" cy="-602" rx="88.2844" ry="18"/>
<text text-anchor="middle" x="2971.2416" y="-598.3" font-family="Times,serif" font-size="14.00" fill="#000000">(related son daughter)</text>
</g>
<!-- x20 -->
<g id="node15" class="node">
<title>x20</title>
<ellipse fill="#87ceeb" stroke="#000000" cx="3166.2416" cy="-602" rx="88.2844" ry="18"/>
<text text-anchor="middle" x="3166.2416" y="-598.3" font-family="Times,serif" font-size="14.00" fill="#000000">(related daughter son)</text>
</g>
<!-- x19 -->
<g id="node16" class="node">
<title>x19</title>
<ellipse fill="#87ceeb" stroke="#000000" cx="3359.2416" cy="-602" rx="87.1846" ry="18"/>
<text text-anchor="middle" x="3359.2416" y="-598.3" font-family="Times,serif" font-size="14.00" fill="#000000">(related son husband)</text>
</g>
<!-- x18 -->
<g id="node17" class="node">
<title>x18</title>
<ellipse fill="#87ceeb" stroke="#000000" cx="3551.2416" cy="-602" rx="87.1846" ry="18"/>
<text text-anchor="middle" x="3551.2416" y="-598.3" font-family="Times,serif" font-size="14.00" fill="#000000">(related husband son)</text>
</g>
<!-- x17 -->
<g id="node18" class="node">
<title>x17</title>
<ellipse fill="#87ceeb" stroke="#000000" cx="3744.2416" cy="-602" rx="88.2844" ry="18"/>
<text text-anchor="middle" x="3744.2416" y="-598.3" font-family="Times,serif" font-size="14.00" fill="#000000">(related daughter son)</text>
</g>
<!-- x16 -->
<g id="node19" class="node">
<title>x16</title>
<ellipse fill="#87ceeb" stroke="#000000" cx="3939.2416" cy="-602" rx="88.2844" ry="18"/>
<text text-anchor="middle" x="3939.2416" y="-598.3" font-family="Times,serif" font-size="14.00" fill="#000000">(related son daughter)</text>
</g>
<!-- x15 -->
<g id="node20" class="node">
<title>x15</title>
<ellipse fill="#87ceeb" stroke="#000000" cx="4142.2416" cy="-602" rx="96.6831" ry="18"/>
<text text-anchor="middle" x="4142.2416" y="-598.3" font-family="Times,serif" font-size="14.00" fill="#000000">(lovers young_wife son)</text>
</g>
<!-- x14 -->
<g id="node21" class="node">
<title>x14</title>
<ellipse fill="#87ceeb" stroke="#000000" cx="4354.2416" cy="-602" rx="96.6831" ry="18"/>
<text text-anchor="middle" x="4354.2416" y="-598.3" font-family="Times,serif" font-size="14.00" fill="#000000">(lovers son young_wife)</text>
</g>
<!-- x13 -->
<g id="node22" class="node">
<title>x13</title>
<ellipse fill="#87ceeb" stroke="#000000" cx="4589.2416" cy="-602" rx="120.4791" ry="18"/>
<text text-anchor="middle" x="4589.2416" y="-598.3" font-family="Times,serif" font-size="14.00" fill="#000000">(married daughter_in_law son)</text>
</g>
<!-- x12 -->
<g id="node23" class="node">
<title>x12</title>
<ellipse fill="#87ceeb" stroke="#000000" cx="4847.2416" cy="-602" rx="120.4791" ry="18"/>
<text text-anchor="middle" x="4847.2416" y="-598.3" font-family="Times,serif" font-size="14.00" fill="#000000">(married son daughter_in_law)</text>
</g>
<!-- x11 -->
<g id="node24" class="node">
<title>x11</title>
<ellipse fill="#87ceeb" stroke="#000000" cx="5105.2416" cy="-602" rx="120.4791" ry="18"/>
<text text-anchor="middle" x="5105.2416" y="-598.3" font-family="Times,serif" font-size="14.00" fill="#000000">(married young_wife husband)</text>
</g>
<!-- x10 -->
<g id="node25" class="node">
<title>x10</title>
<ellipse fill="#87ceeb" stroke="#000000" cx="5363.2416" cy="-602" rx="120.4791" ry="18"/>
<text text-anchor="middle" x="5363.2416" y="-598.3" font-family="Times,serif" font-size="14.00" fill="#000000">(married husband young_wife)</text>
</g>
<!-- x9 -->
<g id="node26" class="node">
<title>x9</title>
<ellipse fill="#87ceeb" stroke="#000000" cx="5575.2416" cy="-602" rx="74.187" ry="18"/>
<text text-anchor="middle" x="5575.2416" y="-598.3" font-family="Times,serif" font-size="14.00" fill="#000000">(existsC husband)</text>
</g>
<!-- x8 -->
<g id="node27" class="node">
<title>x8</title>
<ellipse fill="#87ceeb" stroke="#000000" cx="5754.2416" cy="-602" rx="87.1846" ry="18"/>
<text text-anchor="middle" x="5754.2416" y="-598.3" font-family="Times,serif" font-size="14.00" fill="#000000">(existsC young_wife)</text>
</g>
<!-- x7 -->
<g id="node28" class="node">
<title>x7</title>
<ellipse fill="#87ceeb" stroke="#000000" cx="2424.2416" cy="-310" rx="63.0888" ry="18"/>
<text text-anchor="middle" x="2424.2416" y="-306.3" font-family="Times,serif" font-size="14.00" fill="#000000">(existsC maid)</text>
</g>
<!-- t1 -->
<g id="node42" class="node">
<title>t1</title>
<polygon fill="#00ff00" stroke="#000000" points="2542.2416,-256 2460.2416,-256 2460.2416,-218 2542.2416,-218 2542.2416,-256"/>
<text text-anchor="middle" x="2501.2416" y="-240.8" font-family="Times,serif" font-size="14.00" fill="#000000">get_weapon</text>
<text text-anchor="middle" x="2501.2416" y="-225.8" font-family="Times,serif" font-size="14.00" fill="#000000">maid</text>
</g>
<!-- x7&#45;&gt;t1 -->
<g id="edge9" class="edge">
<title>x7&#45;&gt;t1</title>
<path fill="none" stroke="#000000" d="M2442.4896,-292.7C2451.7941,-283.8789 2463.3047,-272.9662 2473.6648,-263.1442"/>
<polygon fill="#000000" stroke="#000000" points="2476.1083,-265.6507 2480.9573,-256.2306 2471.2922,-260.5707 2476.1083,-265.6507"/>
</g>
<!-- x6 -->
<g id="node29" class="node">
<title>x6</title>
<ellipse fill="#87ceeb" stroke="#000000" cx="5934.2416" cy="-602" rx="75.2868" ry="18"/>
<text text-anchor="middle" x="5934.2416" y="-598.3" font-family="Times,serif" font-size="14.00" fill="#000000">(existsC daughter)</text>
</g>
<!-- x5 -->
<g id="node30" class="node">
<title>x5</title>
<ellipse fill="#87ceeb" stroke="#000000" cx="6131.2416" cy="-602" rx="103.9815" ry="18"/>
<text text-anchor="middle" x="6131.2416" y="-598.3" font-family="Times,serif" font-size="14.00" fill="#000000">(existsC daughter_in_law)</text>
</g>
<!-- x4 -->
<g id="node31" class="node">
<title>x4</title>
<ellipse fill="#87ceeb" stroke="#000000" cx="6328.2416" cy="-602" rx="75.2868" ry="18"/>
<text text-anchor="middle" x="6328.2416" y="-598.3" font-family="Times,serif" font-size="14.00" fill="#000000">(existsC old_lady)</text>
</g>
<!-- x3 -->
<g id="node32" class="node">
<title>x3</title>
<ellipse fill="#87ceeb" stroke="#000000" cx="6479.2416" cy="-602" rx="57.3905" ry="18"/>
<text text-anchor="middle" x="6479.2416" y="-598.3" font-family="Times,serif" font-size="14.00" fill="#000000">(existsC son)</text>
</g>
<!-- t2 -->
<g id="node44" class="node">
<title>t2</title>
<polygon fill="#00ff00" stroke="#000000" points="6594.2416,-548 6512.2416,-548 6512.2416,-510 6594.2416,-510 6594.2416,-548"/>
<text text-anchor="middle" x="6553.2416" y="-532.8" font-family="Times,serif" font-size="14.00" fill="#000000">get_weapon</text>
<text text-anchor="middle" x="6553.2416" y="-517.8" font-family="Times,serif" font-size="14.00" fill="#000000">son</text>
</g>
<!-- x3&#45;&gt;t2 -->
<g id="edge12" class="edge">
<title>x3&#45;&gt;t2</title>
<path fill="none" stroke="#000000" d="M6496.7786,-584.7C6505.6338,-575.9645 6516.5682,-565.1779 6526.449,-555.4306"/>
<polygon fill="#000000" stroke="#000000" points="6529.0866,-557.7451 6533.7476,-548.2306 6524.1706,-552.7618 6529.0866,-557.7451"/>
</g>
<!-- x2 -->
<g id="node33" class="node">
<title>x2</title>
<ellipse fill="#87ceeb" stroke="#000000" cx="6627.2416" cy="-602" rx="72.5877" ry="18"/>
<text text-anchor="middle" x="6627.2416" y="-598.3" font-family="Times,serif" font-size="14.00" fill="#000000">(existsO weapon)</text>
</g>
<!-- x2&#45;&gt;t2 -->
<g id="edge11" class="edge">
<title>x2&#45;&gt;t2</title>
<path fill="none" stroke="#000000" d="M6609.3283,-584.3287C6600.466,-575.5862 6589.5918,-564.859 6579.7853,-555.185"/>
<polygon fill="#000000" stroke="#000000" points="6582.1224,-552.574 6572.5454,-548.0429 6577.2064,-557.5574 6582.1224,-552.574"/>
</g>
<!-- x1 -->
<g id="node34" class="node">
<title>x1</title>
<ellipse fill="#87ceeb" stroke="#000000" cx="2578.2416" cy="-310" rx="72.5877" ry="18"/>
<text text-anchor="middle" x="2578.2416" y="-306.3" font-family="Times,serif" font-size="14.00" fill="#000000">(existsO weapon)</text>
</g>
<!-- x1&#45;&gt;t1 -->
<g id="edge8" class="edge">
<title>x1&#45;&gt;t1</title>
<path fill="none" stroke="#000000" d="M2559.6021,-292.3287C2550.3805,-283.5862 2539.0655,-272.859 2528.8614,-263.185"/>
<polygon fill="#000000" stroke="#000000" points="2530.9931,-260.383 2521.3279,-256.0429 2526.177,-265.4629 2530.9931,-260.383"/>
</g>
<!-- x0 -->
<g id="node35" class="node">
<title>x0</title>
<ellipse fill="#87ceeb" stroke="#000000" cx="6770.2416" cy="-602" rx="51.9908" ry="18"/>
<text text-anchor="middle" x="6770.2416" y="-598.3" font-family="Times,serif" font-size="14.00" fill="#000000">(stage play)</text>
</g>
<!-- x39 -->
<g id="node37" class="node">
<title>x39</title>
<ellipse fill="#87ceeb" stroke="#000000" cx="1055.2416" cy="-456" rx="129.1772" ry="18"/>
<text text-anchor="middle" x="1055.2416" y="-452.3" font-family="Times,serif" font-size="14.00" fill="#000000">(anger husband daughter_in_law)</text>
</g>
<!-- t0&#45;&gt;x39 -->
<g id="edge3" class="edge">
<title>t0&#45;&gt;x39</title>
<path fill="none" stroke="#000000" d="M1531.042,-518.6957C1433.715,-505.871 1267.1817,-483.9271 1159.1898,-469.6971"/>
<polygon fill="#000000" stroke="#000000" points="1159.6224,-466.224 1149.2508,-468.3875 1158.7078,-473.164 1159.6224,-466.224"/>
</g>
<!-- x38 -->
<g id="node38" class="node">
<title>x38</title>
<ellipse fill="#87ceeb" stroke="#000000" cx="1332.2416" cy="-456" rx="129.1772" ry="18"/>
<text text-anchor="middle" x="1332.2416" y="-452.3" font-family="Times,serif" font-size="14.00" fill="#000000">(anger husband daughter_in_law)</text>
</g>
<!-- t0&#45;&gt;x38 -->
<g id="edge4" class="edge">
<title>t0&#45;&gt;x38</title>
<path fill="none" stroke="#000000" d="M1536.825,-509.9155C1495.5085,-499.027 1443.9439,-485.4378 1402.92,-474.6264"/>
<polygon fill="#000000" stroke="#000000" points="1403.5608,-471.1759 1392.999,-472.0119 1401.7769,-477.9448 1403.5608,-471.1759"/>
</g>
<!-- x37 -->
<g id="node39" class="node">
<title>x37</title>
<ellipse fill="#87ceeb" stroke="#000000" cx="1609.2416" cy="-456" rx="129.1772" ry="18"/>
<text text-anchor="middle" x="1609.2416" y="-452.3" font-family="Times,serif" font-size="14.00" fill="#000000">(anger husband daughter_in_law)</text>
</g>
<!-- t0&#45;&gt;x37 -->
<g id="edge5" class="edge">
<title>t0&#45;&gt;x37</title>
<path fill="none" stroke="#000000" d="M1609.2416,-509.8201C1609.2416,-502.0975 1609.2416,-493.0282 1609.2416,-484.5585"/>
<polygon fill="#000000" stroke="#000000" points="1612.7417,-484.2973 1609.2416,-474.2973 1605.7417,-484.2974 1612.7417,-484.2973"/>
</g>
<!-- x36 -->
<g id="node40" class="node">
<title>x36</title>
<ellipse fill="#87ceeb" stroke="#000000" cx="1843.2416" cy="-456" rx="87.1846" ry="18"/>
<text text-anchor="middle" x="1843.2416" y="-452.3" font-family="Times,serif" font-size="14.00" fill="#000000">(has husband money)</text>
</g>
<!-- t0&#45;&gt;x36 -->
<g id="edge6" class="edge">
<title>t0&#45;&gt;x36</title>
<path fill="none" stroke="#000000" d="M1670.4167,-509.9155C1705.9408,-498.8332 1750.4329,-484.9531 1785.3771,-474.0518"/>
<polygon fill="#000000" stroke="#000000" points="1786.4607,-477.3802 1794.9645,-471.0608 1784.3759,-470.6978 1786.4607,-477.3802"/>
</g>
<!-- x35 -->
<g id="node41" class="node">
<title>x35</title>
<ellipse fill="#87ceeb" stroke="#000000" cx="2074.2416" cy="-456" rx="125.3778" ry="18"/>
<text text-anchor="middle" x="2074.2416" y="-452.3" font-family="Times,serif" font-size="14.00" fill="#000000">(wants daughter_in_law money)</text>
</g>
<!-- t0&#45;&gt;x35 -->
<g id="edge7" class="edge">
<title>t0&#45;&gt;x35</title>
<path fill="none" stroke="#000000" d="M1687.3343,-516.7403C1767.8325,-504.1029 1893.4,-484.3902 1979.5182,-470.8706"/>
<polygon fill="#000000" stroke="#000000" points="1980.2205,-474.3033 1989.5567,-469.2946 1979.1348,-467.388 1980.2205,-474.3033"/>
</g>
<!-- t3 -->
<g id="node46" class="node">
<title>t3</title>
<polygon fill="#00ff00" stroke="#000000" points="2036.2416,-402 1880.2416,-402 1880.2416,-364 2036.2416,-364 2036.2416,-402"/>
<text text-anchor="middle" x="1958.2416" y="-386.8" font-family="Times,serif" font-size="14.00" fill="#000000">steal_not_caught</text>
<text text-anchor="middle" x="1958.2416" y="-371.8" font-family="Times,serif" font-size="14.00" fill="#000000">daughter_in_law husband</text>
</g>
<!-- x36&#45;&gt;t3 -->
<g id="edge15" class="edge">
<title>x36&#45;&gt;t3</title>
<path fill="none" stroke="#000000" d="M1870.495,-438.7C1885.0659,-429.4507 1903.2594,-417.9018 1919.2961,-407.7219"/>
<polygon fill="#000000" stroke="#000000" points="1921.3799,-410.5448 1927.9469,-402.2306 1917.6284,-404.635 1921.3799,-410.5448"/>
</g>
<!-- x35&#45;&gt;t3 -->
<g id="edge14" class="edge">
<title>x35&#45;&gt;t3</title>
<path fill="none" stroke="#000000" d="M2046.1613,-438.3287C2031.4518,-429.0719 2013.2067,-417.5901 1997.1563,-407.4894"/>
<polygon fill="#000000" stroke="#000000" points="1998.8293,-404.4069 1988.5015,-402.0429 1995.1009,-410.3314 1998.8293,-404.4069"/>
</g>
<!-- x40 -->
<g id="node43" class="node">
<title>x40</title>
<ellipse fill="#87ceeb" stroke="#000000" cx="2501.2416" cy="-164" rx="78.7863" ry="18"/>
<text text-anchor="middle" x="2501.2416" y="-160.3" font-family="Times,serif" font-size="14.00" fill="#000000">(has maid weapon)</text>
</g>
<!-- t1&#45;&gt;x40 -->
<g id="edge10" class="edge">
<title>t1&#45;&gt;x40</title>
<path fill="none" stroke="#000000" d="M2501.2416,-217.8201C2501.2416,-210.0975 2501.2416,-201.0282 2501.2416,-192.5585"/>
<polygon fill="#000000" stroke="#000000" points="2504.7417,-192.2973 2501.2416,-182.2973 2497.7417,-192.2974 2504.7417,-192.2973"/>
</g>
<!-- t8 -->
<g id="node68" class="node">
<title>t8</title>
<polygon fill="#00ff00" stroke="#000000" points="2435.7416,-110 2296.7416,-110 2296.7416,-72 2435.7416,-72 2435.7416,-110"/>
<text text-anchor="middle" x="2366.2416" y="-94.8" font-family="Times,serif" font-size="14.00" fill="#000000">murder_money</text>
<text text-anchor="middle" x="2366.2416" y="-79.8" font-family="Times,serif" font-size="14.00" fill="#000000">maid daughter_in_law</text>
</g>
<!-- x40&#45;&gt;t8 -->
<g id="edge40" class="edge">
<title>x40&#45;&gt;t8</title>
<path fill="none" stroke="#000000" d="M2470.2699,-147.2523C2452.663,-137.7315 2430.311,-125.6449 2410.8422,-115.1173"/>
<polygon fill="#000000" stroke="#000000" points="2412.3007,-111.9271 2401.8396,-110.2493 2408.9711,-118.0846 2412.3007,-111.9271"/>
</g>
<!-- x41 -->
<g id="node45" class="node">
<title>x41</title>
<ellipse fill="#87ceeb" stroke="#000000" cx="6553.2416" cy="-456" rx="72.5877" ry="18"/>
<text text-anchor="middle" x="6553.2416" y="-452.3" font-family="Times,serif" font-size="14.00" fill="#000000">(has son weapon)</text>
</g>
<!-- t2&#45;&gt;x41 -->
<g id="edge13" class="edge">
<title>t2&#45;&gt;x41</title>
<path fill="none" stroke="#000000" d="M6553.2416,-509.8201C6553.2416,-502.0975 6553.2416,-493.0282 6553.2416,-484.5585"/>
<polygon fill="#000000" stroke="#000000" points="6556.7417,-484.2973 6553.2416,-474.2973 6549.7417,-484.2974 6556.7417,-484.2973"/>
</g>
<!-- x42 -->
<g id="node47" class="node">
<title>x42</title>
<ellipse fill="#87ceeb" stroke="#000000" cx="1958.2416" cy="-310" rx="116.1796" ry="18"/>
<text text-anchor="middle" x="1958.2416" y="-306.3" font-family="Times,serif" font-size="14.00" fill="#000000">(has daughter_in_law money)</text>
</g>
<!-- t3&#45;&gt;x42 -->
<g id="edge16" class="edge">
<title>t3&#45;&gt;x42</title>
<path fill="none" stroke="#000000" d="M1958.2416,-363.8201C1958.2416,-356.0975 1958.2416,-347.0282 1958.2416,-338.5585"/>
<polygon fill="#000000" stroke="#000000" points="1961.7417,-338.2973 1958.2416,-328.2973 1954.7417,-338.2974 1961.7417,-338.2973"/>
</g>
<!-- x42&#45;&gt;t4 -->
<g id="edge18" class="edge">
<title>x42&#45;&gt;t4</title>
<path fill="none" stroke="#000000" d="M1931.6137,-292.3287C1917.7942,-283.1576 1900.6838,-271.8025 1885.5668,-261.7703"/>
<polygon fill="#000000" stroke="#000000" points="1887.2039,-258.6562 1876.9364,-256.0429 1883.3332,-264.4887 1887.2039,-258.6562"/>
</g>
<!-- x47 -->
<g id="node49" class="node">
<title>x47</title>
<ellipse fill="#87ceeb" stroke="#000000" cx="1338.2416" cy="-164" rx="118.0794" ry="18"/>
<text text-anchor="middle" x="1338.2416" y="-160.3" font-family="Times,serif" font-size="14.00" fill="#000000">(anger daughter_in_law maid)</text>
</g>
<!-- t4&#45;&gt;x47 -->
<g id="edge19" class="edge">
<title>t4&#45;&gt;x47</title>
<path fill="none" stroke="#000000" d="M1778.664,-227.0409C1689.7234,-214.3101 1535.2711,-192.2023 1434.9299,-177.8397"/>
<polygon fill="#000000" stroke="#000000" points="1435.1831,-174.3403 1424.788,-176.388 1434.1912,-181.2697 1435.1831,-174.3403"/>
</g>
<!-- x46 -->
<g id="node50" class="node">
<title>x46</title>
<ellipse fill="#87ceeb" stroke="#000000" cx="1593.2416" cy="-164" rx="118.0794" ry="18"/>
<text text-anchor="middle" x="1593.2416" y="-160.3" font-family="Times,serif" font-size="14.00" fill="#000000">(anger daughter_in_law maid)</text>
</g>
<!-- t4&#45;&gt;x46 -->
<g id="edge20" class="edge">
<title>t4&#45;&gt;x46</title>
<path fill="none" stroke="#000000" d="M1781.5765,-217.9155C1743.7826,-207.0961 1696.674,-193.61 1659.0263,-182.8325"/>
<polygon fill="#000000" stroke="#000000" points="1659.7506,-179.3993 1649.1735,-180.0119 1657.824,-186.129 1659.7506,-179.3993"/>
</g>
<!-- x45 -->
<g id="node51" class="node">
<title>x45</title>
<ellipse fill="#87ceeb" stroke="#000000" cx="1848.2416" cy="-164" rx="118.0794" ry="18"/>
<text text-anchor="middle" x="1848.2416" y="-160.3" font-family="Times,serif" font-size="14.00" fill="#000000">(anger daughter_in_law maid)</text>
</g>
<!-- t4&#45;&gt;x45 -->
<g id="edge21" class="edge">
<title>t4&#45;&gt;x45</title>
<path fill="none" stroke="#000000" d="M1848.2416,-217.8201C1848.2416,-210.0975 1848.2416,-201.0282 1848.2416,-192.5585"/>
<polygon fill="#000000" stroke="#000000" points="1851.7417,-192.2973 1848.2416,-182.2973 1844.7417,-192.2974 1851.7417,-192.2973"/>
</g>
<!-- x44 -->
<g id="node52" class="node">
<title>x44</title>
<ellipse fill="#87ceeb" stroke="#000000" cx="2101.2416" cy="-164" rx="116.1796" ry="18"/>
<text text-anchor="middle" x="2101.2416" y="-160.3" font-family="Times,serif" font-size="14.00" fill="#000000">(has daughter_in_law money)</text>
</g>
<!-- t4&#45;&gt;x44 -->
<g id="edge22" class="edge">
<title>t4&#45;&gt;x44</title>
<path fill="none" stroke="#000000" d="M1914.3839,-217.9155C1952.0157,-207.0573 1998.9557,-193.5133 2036.3742,-182.7167"/>
<polygon fill="#000000" stroke="#000000" points="2037.5263,-186.0271 2046.1641,-179.8919 2035.5857,-179.3015 2037.5263,-186.0271"/>
</g>
<!-- x43 -->
<g id="node53" class="node">
<title>x43</title>
<ellipse fill="#87ceeb" stroke="#000000" cx="2320.2416" cy="-164" rx="84.485" ry="18"/>
<text text-anchor="middle" x="2320.2416" y="-160.3" font-family="Times,serif" font-size="14.00" fill="#000000">(wants maid money)</text>
</g>
<!-- t4&#45;&gt;x43 -->
<g id="edge23" class="edge">
<title>t4&#45;&gt;x43</title>
<path fill="none" stroke="#000000" d="M1918.0562,-227.7936C1994.0257,-217.5538 2118.9936,-200.0616 2226.2416,-182 2233.3385,-180.8048 2240.7247,-179.4988 2248.0991,-178.1537"/>
<polygon fill="#000000" stroke="#000000" points="2248.9222,-181.5609 2258.1197,-176.3019 2247.6501,-174.6775 2248.9222,-181.5609"/>
</g>
<!-- t7 -->
<g id="node64" class="node">
<title>t7</title>
<polygon fill="#00ff00" stroke="#000000" points="1894.7416,-110 1755.7416,-110 1755.7416,-72 1894.7416,-72 1894.7416,-110"/>
<text text-anchor="middle" x="1825.2416" y="-94.8" font-family="Times,serif" font-size="14.00" fill="#000000">fight</text>
<text text-anchor="middle" x="1825.2416" y="-79.8" font-family="Times,serif" font-size="14.00" fill="#000000">daughter_in_law maid</text>
</g>
<!-- x45&#45;&gt;t7 -->
<g id="edge36" class="edge">
<title>x45&#45;&gt;t7</title>
<path fill="none" stroke="#000000" d="M1842.5562,-145.9551C1840.0626,-138.0405 1837.074,-128.5549 1834.2871,-119.7096"/>
<polygon fill="#000000" stroke="#000000" points="1837.6068,-118.5988 1831.2635,-110.1128 1830.9304,-120.7024 1837.6068,-118.5988"/>
</g>
<!-- x44&#45;&gt;t8 -->
<g id="edge42" class="edge">
<title>x44&#45;&gt;t8</title>
<path fill="none" stroke="#000000" d="M2158.4164,-148.25C2196.0264,-137.8895 2245.7609,-124.189 2287.1469,-112.7883"/>
<polygon fill="#000000" stroke="#000000" points="2288.2177,-116.1238 2296.929,-110.0937 2286.3586,-109.3752 2288.2177,-116.1238"/>
</g>
<!-- x43&#45;&gt;t8 -->
<g id="edge41" class="edge">
<title>x43&#45;&gt;t8</title>
<path fill="none" stroke="#000000" d="M2331.6124,-145.9551C2336.7606,-137.7852 2342.9635,-127.9413 2348.6887,-118.8557"/>
<polygon fill="#000000" stroke="#000000" points="2351.8278,-120.4392 2354.1979,-110.1128 2345.9055,-116.7073 2351.8278,-120.4392"/>
</g>
<!-- x51 -->
<g id="node55" class="node">
<title>x51</title>
<ellipse fill="#87ceeb" stroke="#000000" cx="94.2416" cy="-456" rx="94.4839" ry="18"/>
<text text-anchor="middle" x="94.2416" y="-452.3" font-family="Times,serif" font-size="14.00" fill="#000000">(affection son husband)</text>
</g>
<!-- t5&#45;&gt;x51 -->
<g id="edge26" class="edge">
<title>t5&#45;&gt;x51</title>
<path fill="none" stroke="#000000" d="M310.2153,-517.1088C268.7572,-505.3784 204.8656,-487.3006 157.3163,-473.8467"/>
<polygon fill="#000000" stroke="#000000" points="158.0069,-470.4048 147.4318,-471.0499 156.1011,-477.1403 158.0069,-470.4048"/>
</g>
<!-- x50 -->
<g id="node56" class="node">
<title>x50</title>
<ellipse fill="#87ceeb" stroke="#000000" cx="300.2416" cy="-456" rx="94.4839" ry="18"/>
<text text-anchor="middle" x="300.2416" y="-452.3" font-family="Times,serif" font-size="14.00" fill="#000000">(affection husband son)</text>
</g>
<!-- t5&#45;&gt;x50 -->
<g id="edge27" class="edge">
<title>t5&#45;&gt;x50</title>
<path fill="none" stroke="#000000" d="M338.5793,-509.8201C332.6503,-501.4968 325.6072,-491.6093 319.1853,-482.594"/>
<polygon fill="#000000" stroke="#000000" points="321.9279,-480.4116 313.2754,-474.2973 316.2265,-484.4729 321.9279,-480.4116"/>
</g>
<!-- x49 -->
<g id="node57" class="node">
<title>x49</title>
<ellipse fill="#87ceeb" stroke="#000000" cx="506.2416" cy="-456" rx="94.4839" ry="18"/>
<text text-anchor="middle" x="506.2416" y="-452.3" font-family="Times,serif" font-size="14.00" fill="#000000">(affection son husband)</text>
</g>
<!-- t5&#45;&gt;x49 -->
<g id="edge28" class="edge">
<title>t5&#45;&gt;x49</title>
<path fill="none" stroke="#000000" d="M392.7033,-509.8201C413.913,-499.7662 439.9376,-487.4298 461.7178,-477.1054"/>
<polygon fill="#000000" stroke="#000000" points="463.2289,-480.2625 470.7659,-472.8164 460.2305,-473.9372 463.2289,-480.2625"/>
</g>
<!-- x48 -->
<g id="node58" class="node">
<title>x48</title>
<ellipse fill="#87ceeb" stroke="#000000" cx="712.2416" cy="-456" rx="94.4839" ry="18"/>
<text text-anchor="middle" x="712.2416" y="-452.3" font-family="Times,serif" font-size="14.00" fill="#000000">(affection husband son)</text>
</g>
<!-- t5&#45;&gt;x48 -->
<g id="edge29" class="edge">
<title>t5&#45;&gt;x48</title>
<path fill="none" stroke="#000000" d="M394.2428,-520.4831C453.7634,-508.4136 563.5954,-486.1422 637.2894,-471.1987"/>
<polygon fill="#000000" stroke="#000000" points="638.3341,-474.5581 647.4391,-469.1405 636.9429,-467.6977 638.3341,-474.5581"/>
</g>
<!-- t6 -->
<g id="node59" class="node">
<title>t6</title>
<polygon fill="#00ff00" stroke="#000000" points="445.2416,-402 361.2416,-402 361.2416,-364 445.2416,-364 445.2416,-402"/>
<text text-anchor="middle" x="403.2416" y="-386.8" font-family="Times,serif" font-size="14.00" fill="#000000">spend_time</text>
<text text-anchor="middle" x="403.2416" y="-371.8" font-family="Times,serif" font-size="14.00" fill="#000000">husband son</text>
</g>
<!-- x50&#45;&gt;t6 -->
<g id="edge30" class="edge">
<title>x50&#45;&gt;t6</title>
<path fill="none" stroke="#000000" d="M324.9127,-438.5147C337.727,-429.4327 353.6159,-418.1716 367.7273,-408.1703"/>
<polygon fill="#000000" stroke="#000000" points="370.1057,-410.7746 376.2406,-402.1367 366.058,-405.0635 370.1057,-410.7746"/>
</g>
<!-- x49&#45;&gt;t6 -->
<g id="edge31" class="edge">
<title>x49&#45;&gt;t6</title>
<path fill="none" stroke="#000000" d="M481.5706,-438.5147C468.7563,-429.4327 452.8674,-418.1716 438.756,-408.1703"/>
<polygon fill="#000000" stroke="#000000" points="440.4252,-405.0635 430.2427,-402.1367 436.3776,-410.7746 440.4252,-405.0635"/>
</g>
<!-- x55 -->
<g id="node60" class="node">
<title>x55</title>
<ellipse fill="#87ceeb" stroke="#000000" cx="94.2416" cy="-310" rx="94.4839" ry="18"/>
<text text-anchor="middle" x="94.2416" y="-306.3" font-family="Times,serif" font-size="14.00" fill="#000000">(affection son husband)</text>
</g>
<!-- t6&#45;&gt;x55 -->
<g id="edge32" class="edge">
<title>t6&#45;&gt;x55</title>
<path fill="none" stroke="#000000" d="M360.9244,-373.0027C310.117,-360.9997 224.1926,-340.7004 163.6303,-326.3928"/>
<polygon fill="#000000" stroke="#000000" points="164.2989,-322.9545 153.7621,-324.0615 162.6894,-329.7669 164.2989,-322.9545"/>
</g>
<!-- x54 -->
<g id="node61" class="node">
<title>x54</title>
<ellipse fill="#87ceeb" stroke="#000000" cx="300.2416" cy="-310" rx="94.4839" ry="18"/>
<text text-anchor="middle" x="300.2416" y="-306.3" font-family="Times,serif" font-size="14.00" fill="#000000">(affection husband son)</text>
</g>
<!-- t6&#45;&gt;x54 -->
<g id="edge33" class="edge">
<title>t6&#45;&gt;x54</title>
<path fill="none" stroke="#000000" d="M376.1796,-363.8201C363.05,-354.5147 347.1617,-343.254 333.3188,-333.443"/>
<polygon fill="#000000" stroke="#000000" points="335.1894,-330.4789 325.0069,-327.5521 331.1418,-336.19 335.1894,-330.4789"/>
</g>
<!-- x53 -->
<g id="node62" class="node">
<title>x53</title>
<ellipse fill="#87ceeb" stroke="#000000" cx="506.2416" cy="-310" rx="94.4839" ry="18"/>
<text text-anchor="middle" x="506.2416" y="-306.3" font-family="Times,serif" font-size="14.00" fill="#000000">(affection son husband)</text>
</g>
<!-- t6&#45;&gt;x53 -->
<g id="edge34" class="edge">
<title>t6&#45;&gt;x53</title>
<path fill="none" stroke="#000000" d="M430.3037,-363.8201C443.4333,-354.5147 459.3216,-343.254 473.1645,-333.443"/>
<polygon fill="#000000" stroke="#000000" points="475.3415,-336.19 481.4764,-327.5521 471.2938,-330.4789 475.3415,-336.19"/>
</g>
<!-- x52 -->
<g id="node63" class="node">
<title>x52</title>
<ellipse fill="#87ceeb" stroke="#000000" cx="712.2416" cy="-310" rx="94.4839" ry="18"/>
<text text-anchor="middle" x="712.2416" y="-306.3" font-family="Times,serif" font-size="14.00" fill="#000000">(affection husband son)</text>
</g>
<!-- t6&#45;&gt;x52 -->
<g id="edge35" class="edge">
<title>t6&#45;&gt;x52</title>
<path fill="none" stroke="#000000" d="M445.5589,-373.0027C496.3663,-360.9997 582.2907,-340.7004 642.8529,-326.3928"/>
<polygon fill="#000000" stroke="#000000" points="643.7939,-329.7669 652.7212,-324.0615 642.1844,-322.9545 643.7939,-329.7669"/>
</g>
<!-- x58 -->
<g id="node65" class="node">
<title>x58</title>
<ellipse fill="#87ceeb" stroke="#000000" cx="1477.2416" cy="-18" rx="118.0794" ry="18"/>
<text text-anchor="middle" x="1477.2416" y="-14.3" font-family="Times,serif" font-size="14.00" fill="#000000">(anger daughter_in_law maid)</text>
</g>
<!-- t7&#45;&gt;x58 -->
<g id="edge37" class="edge">
<title>t7&#45;&gt;x58</title>
<path fill="none" stroke="#000000" d="M1755.655,-76.4028C1698.1606,-64.3422 1616.5306,-47.2187 1556.521,-34.6304"/>
<polygon fill="#000000" stroke="#000000" points="1557.2132,-31.1995 1546.7076,-32.5719 1555.776,-38.0504 1557.2132,-31.1995"/>
</g>
<!-- x57 -->
<g id="node66" class="node">
<title>x57</title>
<ellipse fill="#87ceeb" stroke="#000000" cx="1732.2416" cy="-18" rx="118.0794" ry="18"/>
<text text-anchor="middle" x="1732.2416" y="-14.3" font-family="Times,serif" font-size="14.00" fill="#000000">(anger maid daughter_in_law)</text>
</g>
<!-- t7&#45;&gt;x57 -->
<g id="edge38" class="edge">
<title>t7&#45;&gt;x57</title>
<path fill="none" stroke="#000000" d="M1800.807,-71.8201C1789.2632,-62.7589 1775.3576,-51.8437 1763.0952,-42.2184"/>
<polygon fill="#000000" stroke="#000000" points="1764.9449,-39.2208 1754.9176,-35.7994 1760.6227,-44.7271 1764.9449,-39.2208"/>
</g>
<!-- x56 -->
<g id="node67" class="node">
<title>x56</title>
<ellipse fill="#87ceeb" stroke="#000000" cx="1987.2416" cy="-18" rx="118.0794" ry="18"/>
<text text-anchor="middle" x="1987.2416" y="-14.3" font-family="Times,serif" font-size="14.00" fill="#000000">(anger daughter_in_law maid)</text>
</g>
<!-- t7&#45;&gt;x56 -->
<g id="edge39" class="edge">
<title>t7&#45;&gt;x56</title>
<path fill="none" stroke="#000000" d="M1867.8052,-71.8201C1890.0515,-61.7955 1917.3334,-49.5019 1940.204,-39.196"/>
<polygon fill="#000000" stroke="#000000" points="1941.7021,-42.3599 1949.3813,-35.0605 1938.8262,-35.9779 1941.7021,-42.3599"/>
</g>
<!-- x61 -->
<g id="node69" class="node">
<title>x61</title>
<ellipse fill="#87ceeb" stroke="#000000" cx="2199.2416" cy="-18" rx="75.2868" ry="18"/>
<text text-anchor="middle" x="2199.2416" y="-14.3" font-family="Times,serif" font-size="14.00" fill="#000000">(has maid money)</text>
</g>
<!-- t8&#45;&gt;x61 -->
<g id="edge43" class="edge">
<title>t8&#45;&gt;x61</title>
<path fill="none" stroke="#000000" d="M2322.3644,-71.8201C2298.4764,-61.3781 2268.9561,-48.474 2244.8098,-37.919"/>
<polygon fill="#000000" stroke="#000000" points="2246.0686,-34.6495 2235.5039,-33.8512 2243.2648,-41.0635 2246.0686,-34.6495"/>
</g>
<!-- x60 -->
<g id="node70" class="node">
<title>x60</title>
<ellipse fill="#87ceeb" stroke="#000000" cx="2390.2416" cy="-18" rx="97.4827" ry="18"/>
<text text-anchor="middle" x="2390.2416" y="-14.3" font-family="Times,serif" font-size="14.00" fill="#000000">(!dead daughter_in_law)</text>
</g>
<!-- t8&#45;&gt;x60 -->
<g id="edge44" class="edge">
<title>t8&#45;&gt;x60</title>
<path fill="none" stroke="#000000" d="M2372.5474,-71.8201C2375.1427,-63.9259 2378.2007,-54.6245 2381.0379,-45.9948"/>
<polygon fill="#000000" stroke="#000000" points="2384.4277,-46.8903 2384.2261,-36.2973 2377.7779,-44.704 2384.4277,-46.8903"/>
</g>
<!-- x59 -->
<g id="node71" class="node">
<title>x59</title>
<ellipse fill="#87ceeb" stroke="#000000" cx="2584.2416" cy="-18" rx="78.7863" ry="18"/>
<text text-anchor="middle" x="2584.2416" y="-14.3" font-family="Times,serif" font-size="14.00" fill="#000000">(has maid weapon)</text>
</g>
<!-- t8&#45;&gt;x59 -->
<g id="edge45" class="edge">
<title>t8&#45;&gt;x59</title>
<path fill="none" stroke="#000000" d="M2423.2338,-71.9155C2456.1603,-60.8896 2497.3569,-47.0944 2529.8356,-36.2185"/>
<polygon fill="#000000" stroke="#000000" points="2531.2454,-39.4375 2539.6165,-32.9433 2529.0226,-32.7998 2531.2454,-39.4375"/>
</g>
</g>
</svg>
